<?xml version="1.0" standalone="no"?><!DOCTYPE svg PUBLIC "-//W3C//DTD SVG 1.1//EN" "http://www.w3.org/Graphics/SVG/1.1/DTD/svg11.dtd"><svg t="1552226672723" class="icon" style="" viewBox="0 0 1024 1024" version="1.1" xmlns="http://www.w3.org/2000/svg" p-id="4416" xmlns:xlink="http://www.w3.org/1999/xlink" width="200" height="200"><defs><style type="text/css"></style></defs><path d="M866.991 707.772c0 0-25.341 69.55-71.877 132.071 0 0 83.050 28.439 76.137 102.196 0 0 2.709 82.331-177.613 76.685 0 0-126.817-9.898-164.88-63.85h-33.53c-38.018 54.006-164.834 63.85-164.834 63.85-180.431 5.7-177.556-76.685-177.556-76.685-7.025-73.756 76.081-102.196 76.081-102.196-46.475-62.519-71.875-132.071-71.875-132.071-112.759 183.141-101.477-25.567-101.477-25.567 21.141-123.495 109.949-204.384 109.949-204.384-12.677-112.157 33.805-132.078 33.805-132.078 9.68-346.979 306.473-340.887 312.675-340.722 6.249-0.163 302.931-6.256 312.72 340.723 0 0 46.538 19.866 33.812 132.078 0 0 88.751 80.89 109.886 204.384 0.055-0.001 11.285 208.707-101.421 25.566v0 0z" p-id="4417"></path></svg>